<svg width="16" height="19" viewBox="0 0 16 19" fill="none" xmlns="http://www.w3.org/2000/svg">
<path d="M7.93182 10.2377C7.95129 10.2377 7.97077 10.2377 7.99414 10.2377C8.00193 10.2377 8.00972 10.2377 8.01751 10.2377C8.0292 10.2377 8.04478 10.2377 8.05647 10.2377C9.19778 10.2181 10.121 9.8128 10.8026 9.03769C12.3023 7.33009 12.053 4.40278 12.0257 4.12342C11.9284 2.0263 10.9468 1.02299 10.1365 0.554773C9.53277 0.204597 8.82773 0.0157382 8.04088 0H8.01362C8.00972 0 8.00193 0 7.99804 0H7.97467C7.54229 0 6.69312 0.0708221 5.87901 0.539035C5.06101 1.00725 4.06382 2.01056 3.96644 4.12342C3.93917 4.40278 3.68988 7.33009 5.18955 9.03769C5.86733 9.8128 6.7905 10.2181 7.93182 10.2377ZM5.00647 4.22179C5.00647 4.20998 5.01037 4.19818 5.01037 4.19031C5.13891 1.36923 7.1216 1.06627 7.97077 1.06627H7.98635C7.99414 1.06627 8.00583 1.06627 8.01751 1.06627C9.06923 1.08987 10.8572 1.52268 10.9779 4.19031C10.9779 4.20211 10.9779 4.21392 10.9818 4.22179C10.9857 4.24933 11.2584 6.92483 10.0197 8.3334C9.52888 8.89211 8.87447 9.16753 8.01362 9.1754C8.00583 9.1754 8.00193 9.1754 7.99414 9.1754C7.98635 9.1754 7.98246 9.1754 7.97467 9.1754C7.11771 9.16753 6.45941 8.89211 5.9725 8.3334C4.7377 6.9327 5.00258 4.24539 5.00647 4.22179Z" fill="white"/>
<path d="M15.9989 15.093C15.9989 15.089 15.9989 15.0851 15.9989 15.0812C15.9989 15.0497 15.995 15.0182 15.995 14.9828C15.9716 14.2038 15.921 12.3821 14.2305 11.7998C14.2188 11.7958 14.2032 11.7919 14.1915 11.7879C12.4347 11.3355 10.974 10.3125 10.9584 10.3007C10.7208 10.1315 10.3936 10.1905 10.2261 10.4305C10.0586 10.6705 10.1171 11.001 10.3547 11.1702C10.4209 11.2174 11.9712 12.3073 13.911 12.8109C14.8186 13.1375 14.9199 14.1172 14.9472 15.0143C14.9472 15.0497 14.9472 15.0812 14.9511 15.1127C14.955 15.4668 14.9316 16.0137 14.8693 16.3284C14.2382 16.6904 11.7648 17.9416 8.00193 17.9416C4.25469 17.9416 1.76561 16.6865 1.13069 16.3245C1.06836 16.0097 1.0411 15.4628 1.04889 15.1087C1.04889 15.0772 1.05278 15.0458 1.05278 15.0104C1.08005 14.1133 1.18133 13.1336 2.08892 12.807C4.02876 12.3034 5.57908 11.2096 5.6453 11.1663C5.88291 10.9971 5.94134 10.6666 5.77384 10.4266C5.60635 10.1866 5.27914 10.1276 5.04153 10.2968C5.02595 10.3086 3.57302 11.3315 1.80846 11.784C1.79288 11.7879 1.7812 11.7919 1.76951 11.7958C0.0789655 12.3821 0.0283271 14.2038 0.00495551 14.9789C0.00495551 15.0143 0.00495542 15.0458 0.00106015 15.0772C0.00106015 15.0812 0.00106015 15.0851 0.00106015 15.089C-0.00283511 15.2936 -0.00673029 16.3442 0.199719 16.8714C0.238671 16.9737 0.308786 17.0603 0.402272 17.1193C0.51913 17.198 3.31983 19 8.00583 19C12.6918 19 15.4925 17.194 15.6094 17.1193C15.699 17.0603 15.773 16.9737 15.8119 16.8714C16.0067 16.3481 16.0028 15.2976 15.9989 15.093Z" fill="white"/>
</svg>
