<svg width="20" height="21" viewBox="0 0 20 21" fill="none" xmlns="http://www.w3.org/2000/svg">
<path d="M5.70003 13.8269H17.5584C18.9031 13.8269 20 12.7566 20 11.4445V6.57614C20 6.57182 20 6.56319 20 6.55888C20 6.54593 20 6.5373 20 6.52435C20 6.51572 20 6.50708 19.9956 6.49845C19.9956 6.48982 19.9912 6.47687 19.9912 6.46824C19.9912 6.45961 19.9867 6.45098 19.9867 6.44235C19.9823 6.43371 19.9823 6.42508 19.9779 6.41213C19.9735 6.4035 19.9735 6.39487 19.969 6.38624C19.9646 6.37761 19.9646 6.36897 19.9602 6.36034C19.9558 6.35171 19.9513 6.34308 19.9469 6.33013C19.9425 6.3215 19.9381 6.31287 19.9337 6.30855C19.9292 6.29992 19.9248 6.29129 19.9204 6.28266C19.916 6.27402 19.9115 6.26971 19.9071 6.26108C19.9027 6.25244 19.8938 6.24381 19.8894 6.23518C19.885 6.22655 19.8806 6.22223 19.8717 6.2136C19.8673 6.20497 19.8585 6.20065 19.854 6.19202C19.8496 6.18339 19.8408 6.17907 19.8363 6.17044C19.8319 6.16181 19.8231 6.15749 19.8187 6.15318C19.8098 6.14455 19.8054 6.14023 19.7965 6.1316C19.7877 6.12728 19.7833 6.11865 19.7744 6.11433C19.7656 6.11002 19.7567 6.10139 19.7479 6.09707C19.739 6.09275 19.7346 6.08844 19.7258 6.08412C19.7169 6.07981 19.7081 6.07549 19.6992 6.06686C19.6904 6.06254 19.6815 6.05823 19.6727 6.05391C19.6638 6.04959 19.655 6.04528 19.6462 6.04096C19.6373 6.03665 19.6285 6.03233 19.6196 6.02802C19.6108 6.0237 19.6019 6.0237 19.5931 6.01938C19.5842 6.01507 19.571 6.01075 19.5621 6.01075C19.5533 6.01075 19.5444 6.00644 19.54 6.00644C19.5267 6.00212 19.5179 6.00212 19.5046 6.00212C19.5002 6.00212 19.4958 5.9978 19.4869 5.9978L4.45713 3.97363V1.92787C4.45713 1.9063 4.45713 1.88472 4.45271 1.86745C4.45271 1.86314 4.45271 1.85882 4.44828 1.85019C4.44828 1.83724 4.44386 1.82429 4.44386 1.81134C4.43944 1.7984 4.43944 1.78977 4.43502 1.77682C4.43502 1.76819 4.43059 1.76387 4.43059 1.75524C4.42617 1.74229 4.42175 1.72934 4.41732 1.71639C4.41732 1.71208 4.4129 1.70345 4.4129 1.69913C4.40848 1.68618 4.40405 1.67755 4.39521 1.6646C4.39078 1.66029 4.39078 1.65165 4.38636 1.64734C4.38194 1.63871 4.37751 1.63008 4.36867 1.62144C4.36424 1.61281 4.35982 1.6085 4.3554 1.59986C4.35098 1.59123 4.34655 1.58692 4.34213 1.57828C4.33771 1.56965 4.32886 1.56102 4.32444 1.55239C4.32001 1.54807 4.31559 1.54376 4.31117 1.53944C4.30232 1.53081 4.29347 1.52218 4.28463 1.51355C4.28021 1.50923 4.27578 1.50491 4.27136 1.5006C4.26251 1.49197 4.25367 1.48333 4.2404 1.4747C4.23597 1.47039 4.22713 1.46607 4.2227 1.46175C4.21386 1.45312 4.20501 1.44881 4.19617 1.44017C4.1829 1.43154 4.16963 1.42291 4.16078 1.41859C4.15636 1.41428 4.15193 1.41428 4.14751 1.40996C4.12982 1.40133 4.1077 1.3927 4.09001 1.38407L0.830166 0.0461266C0.52497 -0.0790356 0.175543 0.0590744 0.0472722 0.356874C-0.0809985 0.654674 0.0605416 0.995633 0.365737 1.12079L3.25846 2.31199V15.0785C3.25846 16.287 4.18732 17.2883 5.38599 17.4394C5.16925 17.7933 5.04098 18.2076 5.04098 18.6478C5.04098 19.9469 6.12465 21 7.45159 21C8.77853 21 9.86219 19.9426 9.86219 18.6478C9.86219 18.2162 9.74277 17.8062 9.53046 17.4609H14.9001C14.6878 17.8105 14.5684 18.2162 14.5684 18.6478C14.5684 19.9469 15.6521 21 16.979 21C18.3059 21 19.3896 19.9426 19.3896 18.6478C19.3896 17.353 18.3059 16.2956 16.979 16.2956H5.70003C5.01002 16.2956 4.45271 15.7475 4.45271 15.0785V13.4989C4.8154 13.7061 5.24445 13.8269 5.70003 13.8269ZM8.67237 18.6435C8.67237 19.2995 8.1239 19.8304 7.45601 19.8304C6.78812 19.8304 6.23965 19.2952 6.23965 18.6435C6.23965 17.9918 6.78812 17.4566 7.45601 17.4566C8.1239 17.4566 8.67237 17.9875 8.67237 18.6435ZM18.1998 18.6435C18.1998 19.2995 17.6513 19.8304 16.9834 19.8304C16.3155 19.8304 15.7671 19.2952 15.7671 18.6435C15.7671 17.9918 16.3155 17.4566 16.9834 17.4566C17.6513 17.4566 18.1998 17.9875 18.1998 18.6435ZM17.5584 12.6616H5.70003C5.01002 12.6616 4.45271 12.1135 4.45271 11.4445V5.14756L18.8058 7.07679V11.4402C18.8058 12.1178 18.244 12.6616 17.5584 12.6616Z" fill="#323232"/>
</svg>
