<svg width="30" height="30" viewBox="0 0 30 30" fill="none" xmlns="http://www.w3.org/2000/svg">
<g opacity="0.4">
<path d="M25.6131 4.38811C19.7639 -1.4627 10.2434 -1.4627 4.39417 4.38811C1.56078 7.22338 0 10.9922 0 15.0004C0 19.0087 1.56078 22.7775 4.39417 25.6116C7.31937 28.5376 11.1615 30 15.0036 30C18.8457 30 22.6879 28.5376 25.6131 25.6116C31.4623 19.7608 31.4623 10.24 25.6131 4.38811ZM23.9698 23.9678C19.0259 28.9131 10.9813 28.9131 6.03745 23.9678C3.6434 21.5731 2.32432 18.3879 2.32432 15.0004C2.32432 11.6129 3.6434 8.4277 6.03745 6.03184C10.9813 1.0866 19.0259 1.08778 23.9698 6.03184C28.9125 10.9771 28.9125 19.0238 23.9698 23.9678Z" fill="#323232"/>
<path d="M20.0114 18.2136L16.7213 14.9272L20.0114 11.6409C20.4647 11.1875 20.4647 10.4517 20.0126 9.99711C19.5582 9.54141 18.8226 9.54259 18.3682 9.99594L15.0757 13.2846L11.7833 9.99594C11.3289 9.54259 10.5933 9.54141 10.1389 9.99711C9.68565 10.4516 9.68565 11.1875 10.14 11.6409L13.4302 14.9272L10.14 18.2136C9.68565 18.6669 9.68565 19.4028 10.1389 19.8573C10.3655 20.0851 10.6642 20.1979 10.9617 20.1979C11.2593 20.1979 11.5567 20.084 11.7834 19.8584L15.0758 16.5698L18.3682 19.8584C18.5949 20.0852 18.8923 20.1979 19.1899 20.1979C19.4874 20.1979 19.7861 20.084 20.0127 19.8573C20.4658 19.4028 20.4658 18.6669 20.0114 18.2136Z" fill="#323232"/>
</g>
</svg>
