<svg width="30" height="30" viewBox="0 0 30 30" fill="none" xmlns="http://www.w3.org/2000/svg">
<path d="M15 30C23.2843 30 30 23.2843 30 15C30 6.71573 23.2843 0 15 0C6.71573 0 0 6.71573 0 15C0 23.2843 6.71573 30 15 30Z" fill="#BFE1FF"/>
<path d="M29.9998 15C29.9998 14.516 29.9769 14.0374 29.9321 13.5652L20.5 3L16.1364 5.97864L13.5793 10.5L13.5832 17.5L11.5 26.5L13.5812 29.9338C14.0482 29.9776 14.5214 30 14.9998 30C23.2841 30 29.9998 23.2842 29.9998 15Z" fill="#87C7FF"/>
<path d="M20.5105 3.00499L17.3923 3C13.8893 3 11.6254 5.31828 11.6254 8.90643V11.6297H8.49029C8.21938 11.6297 8 11.8489 8 12.1193V16.065C8 16.3354 8.21963 16.5544 8.49029 16.5544H11.6254V26.5106C11.6254 26.781 11.8448 27 12.1157 27H16.2061C16.4771 27 16.6964 26.7808 16.6964 26.5106V16.5544H20.3621C20.633 16.5544 20.8524 16.3354 20.8524 16.065L20.8539 12.1193C20.8539 11.9895 20.8021 11.8651 20.7103 11.7733C20.6185 11.6814 20.4934 11.6297 20.3634 11.6297H16.6964V9.32115C16.6964 8.21157 16.9613 7.64829 18.4095 7.64829L20.51 7.64755C20.7806 7.64755 21 7.42833 21 7.15817V3.49437C21 3.22446 20.7809 3.00549 20.5105 3.00499Z" fill="#3B5999"/>
</svg>
