<svg width="30" height="30" viewBox="0 0 30 30" fill="none" xmlns="http://www.w3.org/2000/svg">
<path d="M15 30C23.2843 30 30 23.2843 30 15C30 6.71573 23.2843 0 15 0C6.71573 0 0 6.71573 0 15C0 23.2843 6.71573 30 15 30Z" fill="#BFE1FF"/>
<path d="M29.9998 15C29.9998 14.516 29.9769 14.0374 29.9321 13.5652L23.1833 6.81641L16.1364 5.97864L9.8535 6.81641L5.51562 16.5995L6.64215 22.9947L13.5812 29.9338C14.0482 29.9776 14.5214 30 14.9998 30C23.2841 30 29.9998 23.2842 29.9998 15Z" fill="#87C7FF"/>
<path d="M14.9847 3.42688C11.3209 3.42688 8.04982 5.13852 5.92773 7.80372L8.93998 10.816C10.2691 8.90165 12.4828 7.64563 14.9847 7.64563C16.9491 7.64563 18.796 8.41063 20.1851 9.79971L23.1682 6.81659C20.9823 4.63075 18.076 3.42688 14.9847 3.42688Z" fill="#FF583E"/>
<path d="M23.1726 6.81665C20.9883 4.63245 18.0848 3.42888 14.9961 3.427V7.64575C16.9579 7.64757 18.802 8.41233 20.1894 9.79978L23.1726 6.81665Z" fill="#F92814"/>
<path d="M20.283 20.0966C18.9441 21.4877 17.0642 22.3547 14.9856 22.3547C12.4792 22.3547 10.2624 21.0938 8.93412 19.1737L5.92188 22.186C8.04367 24.8568 11.3173 26.5735 14.9856 26.5735C18.2274 26.5735 21.1615 25.2331 23.2646 23.0782L20.283 20.0966Z" fill="#06B26B"/>
<path d="M23.2681 23.0781L20.2865 20.0965C18.9491 21.4861 17.0719 22.3526 14.9961 22.3546V26.5733C18.2351 26.5713 21.1665 25.2314 23.2681 23.0781Z" fill="#0A9154"/>
<path d="M26.5706 15.0001V12.8907H16.8008V17.1094H22.0436C21.6516 18.4163 20.9046 19.5708 19.9159 20.462L22.9003 23.4464C25.1575 21.3331 26.5706 18.3288 26.5706 15.0001Z" fill="#4855B7"/>
<path d="M7.63672 15C7.63672 13.4025 8.149 11.9225 9.01754 10.7151L6.01092 7.7085C4.3908 9.70016 3.41797 12.2384 3.41797 15C3.41797 17.7815 4.40451 20.3367 6.04578 22.3348L9.05047 19.3301C8.16207 18.1145 7.63672 16.6176 7.63672 15Z" fill="#FFCE00"/>
</svg>
