<svg width="155" height="19" viewBox="0 0 155 19" fill="none" xmlns="http://www.w3.org/2000/svg">
<path d="M11.02 8.43023C11.0867 8.31023 11.0267 8.51023 10.84 9.03023C10.8 9.15023 10.6933 9.47023 10.52 9.99023C10.36 10.5102 10.2867 10.8169 10.3 10.9102C10.3 11.0036 10.2667 11.0902 10.2 11.1702C10.1333 11.2502 10.0867 11.3169 10.06 11.3702C10.1 11.6102 9.95333 12.2702 9.62 13.3502C9.51333 13.7902 9.36667 14.4236 9.18 15.2502C9.00667 16.0636 8.91333 16.5569 8.9 16.7302C8.9 16.7702 8.88 16.8436 8.84 16.9502C8.8 17.0569 8.81333 17.1436 8.88 17.2102C8.73333 17.5436 8.67333 17.7636 8.7 17.8702C8.7 18.1102 8.65333 18.2569 8.56 18.3102C8.46667 18.3769 8.34667 18.4036 8.2 18.3902C8.06667 18.3902 7.97333 18.3902 7.92 18.3902L7.3 17.7902C7.31333 17.5502 7.36 17.2236 7.44 16.8102C7.50667 16.5169 7.54 16.3102 7.54 16.1902C7.55333 16.1502 7.58 16.0436 7.62 15.8702C7.66 15.6836 7.7 15.4569 7.74 15.1902C7.78 14.9102 7.79333 14.6769 7.78 14.4902C7.84667 14.4636 7.91333 14.4169 7.98 14.3502C8.04667 14.2702 8.08667 14.1902 8.1 14.1102L8.34 13.0102C8.36667 12.9969 8.43333 12.7702 8.54 12.3302C8.66 11.8902 8.74667 11.5836 8.8 11.4102C8.84 11.1836 8.87333 11.0436 8.9 10.9902C8.84667 10.9236 8.78 10.9169 8.7 10.9702C8.46 11.1302 8.24 11.2436 8.04 11.3102C7.89333 11.5636 7.62 11.9436 7.22 12.4502C6.94 12.7702 6.72667 13.0502 6.58 13.2902C6.46 13.4769 5.95333 13.9902 5.06 14.8302C4.16667 15.6702 3.63333 16.1769 3.46 16.3502L2.54 17.2102C2.3 17.4769 1.96 17.6502 1.52 17.7302C1.26667 17.5302 1.11333 17.3902 1.06 17.3102C1.00667 17.2436 0.946667 17.0836 0.88 16.8302C1.01333 16.6569 1.11333 16.5502 1.18 16.5102C1.36667 16.3902 1.76 16.0702 2.36 15.5502C2.96 15.0302 3.40667 14.6302 3.7 14.3502L4.74 13.3102C5.03333 13.0169 5.18 12.8702 5.18 12.8702C5.35333 12.7102 5.50667 12.5569 5.64 12.4102C5.77333 12.2502 5.94 12.0369 6.14 11.7702C5.82 11.6902 5.49333 11.5702 5.16 11.4102C4.84 11.2502 4.62 11.0969 4.5 10.9502C3.96667 10.3636 3.7 9.62357 3.7 8.73023C3.7 8.06357 3.83333 7.42357 4.1 6.81023C4.22 6.46357 4.34 6.20357 4.46 6.03023C4.59333 5.8569 4.76667 5.67023 4.98 5.47023C5.26 5.19023 5.42667 5.0169 5.48 4.95023C5.84 4.59023 6.22667 4.31023 6.64 4.11023C7.05333 3.8969 7.58 3.6769 8.22 3.45023C8.40667 3.3969 8.61333 3.32357 8.84 3.23023C9.02667 3.20357 9.33333 3.1769 9.76 3.15023C10.2 3.12357 10.5333 3.10357 10.76 3.09023C10.96 3.17023 11.0867 3.2369 11.14 3.29023C11.2067 3.34357 11.2733 3.39023 11.34 3.43023L11.72 3.11023C11.76 3.1369 11.86 3.19023 12.02 3.27023C12.1933 3.35023 12.34 3.4569 12.46 3.59023C12.58 3.71023 12.6533 3.8569 12.68 4.03023C12.3333 4.8569 12.0467 5.57023 11.82 6.17023C11.5933 6.7569 11.3267 7.51023 11.02 8.43023ZM9.62 8.71023C10.1667 7.11023 10.4067 6.42357 10.34 6.65023C10.4067 6.3969 10.4933 6.14357 10.6 5.89023C10.7467 5.49023 10.9067 4.9969 11.08 4.41023C10.9867 4.2769 10.7867 4.21023 10.48 4.21023C10.2667 4.21023 9.94667 4.25023 9.52 4.33023C8.69333 4.49023 7.85333 4.85023 7 5.41023C6.16 5.97023 5.58 6.62357 5.26 7.37023C5.12667 7.69023 5.02667 7.98357 4.96 8.25023C4.90667 8.50357 4.88667 8.76357 4.9 9.03023C4.9 9.24357 4.91333 9.42357 4.94 9.57023C4.98 9.70357 5.04 9.85023 5.12 10.0102C5.13333 10.0636 5.15333 10.1236 5.18 10.1902C5.20667 10.2436 5.23333 10.3102 5.26 10.3902C5.27333 10.4702 5.34667 10.5369 5.48 10.5902C5.62667 10.6436 5.78 10.6702 5.94 10.6702C6.00667 10.6702 6.10667 10.6569 6.24 10.6302C6.36 10.5902 6.54667 10.5302 6.8 10.4502C7.06667 10.3702 7.30667 10.2902 7.52 10.2102C7.73333 10.1169 7.93333 10.0102 8.12 9.89023C8.28 9.81023 8.44 9.77023 8.6 9.77023C8.84 9.77023 9.03333 9.84357 9.18 9.99023L9.36 9.47023L9.62 8.71023ZM16.9208 17.7302C16.8541 17.7702 16.7741 17.7902 16.6808 17.7902C16.4808 17.7902 16.2808 17.7102 16.0808 17.5502C15.8808 17.3902 15.7741 17.2102 15.7608 17.0102C15.8541 16.7702 16.0274 16.6502 16.2808 16.6502C16.3608 16.6502 16.4541 16.5969 16.5608 16.4902C16.7341 16.3169 16.9474 16.0969 17.2008 15.8302C17.4541 15.5636 17.6008 15.4102 17.6408 15.3702C18.0141 14.9569 18.4874 14.3502 19.0608 13.5502C19.2074 13.3369 19.4608 12.9169 19.8208 12.2902C19.8608 12.2236 19.9141 12.1236 19.9808 11.9902C20.0474 11.8569 20.1141 11.7436 20.1808 11.6502C20.2608 11.5569 20.3474 11.4769 20.4408 11.4102C20.4808 11.1702 20.5141 11.0236 20.5408 10.9702C20.5674 10.9036 20.6074 10.8502 20.6608 10.8102C20.7141 10.7702 20.7541 10.7436 20.7808 10.7302L20.7208 10.5702C20.9341 10.1836 21.1341 9.78357 21.3208 9.37023C21.4408 9.0369 21.5674 8.7369 21.7008 8.47023C21.7274 8.39023 21.7808 8.33023 21.8608 8.29023C21.9408 8.2369 21.9808 8.17023 21.9808 8.09023C21.9674 7.9169 22.2608 7.18357 22.8608 5.89023C22.9141 5.7569 22.9941 5.58357 23.1008 5.37023C22.7674 5.37023 22.3408 5.51023 21.8208 5.79023L21.3208 6.05023C21.1074 6.1569 20.9141 6.24357 20.7408 6.31023C20.5808 6.3769 20.4341 6.41023 20.3008 6.41023C20.1674 6.41023 20.0208 6.38357 19.8608 6.33023C19.7674 6.1569 19.7208 5.97023 19.7208 5.77023C19.7208 5.41023 19.8608 5.1769 20.1408 5.07023C21.6874 4.48357 22.4341 4.21023 22.3808 4.25023C23.0608 4.0769 23.6741 3.88357 24.2208 3.67023C24.4208 3.6569 24.7408 3.62357 25.1808 3.57023C25.6341 3.5169 25.8874 3.47023 25.9408 3.43023C26.2074 3.4169 26.4808 3.45023 26.7608 3.53023C27.0408 3.61023 27.1941 3.6969 27.2208 3.79023C27.2474 3.87023 27.3074 3.94357 27.4008 4.01023C27.5074 4.0769 27.5741 4.14357 27.6008 4.21023L27.9608 4.49023C27.9741 4.49023 28.0008 4.58357 28.0408 4.77023C28.0808 4.94357 28.1074 5.11023 28.1208 5.27023L28.1408 5.45023C28.1408 5.69023 28.0941 6.0369 28.0008 6.49023C27.9074 6.93023 27.8074 7.34357 27.7008 7.73023C27.5941 8.10357 27.5274 8.29023 27.5008 8.29023C27.4874 8.3969 27.4541 8.5569 27.4008 8.77023C27.3208 9.06357 27.2741 9.28357 27.2608 9.43023C27.2741 9.47023 27.1874 9.79023 27.0008 10.3902C26.8408 10.9636 26.7674 11.2502 26.7808 11.2502C26.7274 11.6636 26.6141 12.1502 26.4408 12.7102C26.2674 13.2569 26.0408 13.9302 25.7608 14.7302C25.6941 14.9169 25.5941 15.1969 25.4608 15.5702C25.3408 15.9436 25.2541 16.2369 25.2008 16.4502C25.1608 16.5169 25.1074 16.6369 25.0408 16.8102C24.9874 16.9702 24.9208 17.0902 24.8408 17.1702C24.6674 17.3436 24.4874 17.4302 24.3008 17.4302L24.1408 17.3902C23.8741 17.2836 23.7008 17.0902 23.6208 16.8102C23.7541 16.4769 23.9408 15.9836 24.1808 15.3302C24.4341 14.6769 24.6341 14.1369 24.7808 13.7102C24.7941 13.6569 24.8541 13.3569 24.9608 12.8102C25.0808 12.2502 25.2274 11.8236 25.4008 11.5302C25.4141 11.4636 25.4408 11.2836 25.4808 10.9902C25.5341 10.6836 25.6074 10.3702 25.7008 10.0502L25.8408 9.47023C25.9608 8.96357 26.0474 8.62357 26.1008 8.45023L26.5008 6.63023C26.5408 6.4969 26.5808 6.2569 26.6208 5.91023C26.6741 5.56357 26.7141 5.23023 26.7408 4.91023C26.6741 4.84357 26.6674 4.77023 26.7208 4.69023C26.1341 4.69023 25.4541 4.76357 24.6808 4.91023C24.5874 4.92357 24.5074 4.96357 24.4408 5.03023C24.3741 5.08357 24.3274 5.1569 24.3008 5.25023C24.2874 5.37023 24.1341 5.78357 23.8408 6.49023C23.5608 7.18357 23.3408 7.6769 23.1808 7.97023C22.9008 8.50357 22.6608 9.01023 22.4608 9.49023L22.2608 9.93023C22.1274 10.3436 21.8208 11.0102 21.3408 11.9302C20.8608 12.8502 20.4408 13.5969 20.0808 14.1702C19.5608 14.9036 18.9941 15.6436 18.3808 16.3902C18.1808 16.6436 17.9274 16.9102 17.6208 17.1902C17.3274 17.4702 17.0941 17.6502 16.9208 17.7302ZM41.6502 4.91023C41.8902 5.1369 42.0835 5.5169 42.2302 6.05023C42.3902 6.57023 42.4702 7.0769 42.4702 7.57023C42.4702 7.90357 42.4302 8.17023 42.3502 8.37023C42.3235 8.42357 42.3102 8.5169 42.3102 8.65023C42.2968 8.86357 42.2635 9.15023 42.2102 9.51023C42.1702 9.8569 42.1302 10.0769 42.0902 10.1702C42.0902 10.3436 42.0502 10.5436 41.9702 10.7702C41.8902 10.9969 41.8368 11.1636 41.8102 11.2702C41.5835 12.0969 41.2302 12.9836 40.7502 13.9302C40.2835 14.8769 39.7102 15.7102 39.0302 16.4302C38.3635 17.1369 37.6502 17.5436 36.8902 17.6502C36.8368 17.6902 36.7635 17.7102 36.6702 17.7102C36.6568 17.7102 36.5102 17.6902 36.2302 17.6502C35.7635 17.6236 35.3302 17.4702 34.9302 17.1902C34.5302 16.9236 34.3035 16.5702 34.2502 16.1302L34.1702 15.5702C34.1568 15.5169 34.1435 15.4436 34.1302 15.3502C34.1168 15.2569 34.1102 15.1436 34.1102 15.0102C34.1102 14.8369 34.1435 14.6502 34.2102 14.4502C34.1702 14.3836 34.1502 14.3302 34.1502 14.2902C34.1502 13.8502 34.1902 13.4169 34.2702 12.9902C34.3635 12.5636 34.4968 12.0302 34.6702 11.3902C34.7235 11.2036 34.8302 10.7902 34.9902 10.1502C35.0168 10.0169 35.0835 9.83023 35.1902 9.59023C35.2568 9.4169 35.3102 9.26357 35.3502 9.13023C35.2435 9.1569 35.1635 9.18357 35.1102 9.21023C34.7368 9.22357 34.2102 9.30357 33.5302 9.45023C33.4502 9.46357 33.3168 9.53023 33.1302 9.65023C32.9568 9.7569 32.8368 9.81023 32.7702 9.81023C32.6768 9.8769 32.5568 9.95023 32.4102 10.0302C32.2635 10.0969 32.1435 10.1702 32.0502 10.2502C31.9568 10.3302 31.9035 10.4302 31.8902 10.5502C31.8102 10.8036 31.6768 11.1969 31.4902 11.7302C31.3168 12.2636 31.1702 12.6902 31.0502 13.0102C30.9568 13.3036 30.8502 13.7502 30.7302 14.3502C30.7035 14.4836 30.6502 14.7036 30.5702 15.0102C30.5035 15.3036 30.4368 15.5569 30.3702 15.7702L30.2702 16.1702C30.0568 17.0902 29.9502 17.5702 29.9502 17.6102C29.8568 17.7836 29.7768 17.8969 29.7102 17.9502C29.6568 18.0169 29.5702 18.0969 29.4502 18.1902C28.9968 18.0036 28.7435 17.8236 28.6902 17.6502C28.6635 17.5702 28.7235 17.2636 28.8702 16.7302C29.0302 16.1836 29.1435 15.8369 29.2102 15.6902C29.2368 15.2636 29.3835 14.4769 29.6502 13.3302C29.9168 12.1702 30.1302 11.4102 30.2902 11.0502C30.3302 10.9436 30.3968 10.8236 30.4902 10.6902C30.5835 10.5436 30.6502 10.4302 30.6902 10.3502C30.9168 10.0169 31.0702 9.74357 31.1502 9.53023C31.2568 9.30357 31.4568 8.7569 31.7502 7.89023C32.0702 6.89023 32.4902 5.7769 33.0102 4.55023C33.0502 4.48357 33.1102 4.33023 33.1902 4.09023C33.2702 3.8369 33.3168 3.68357 33.3302 3.63023C33.3302 3.60357 33.3702 3.5169 33.4502 3.37023C33.5302 3.3569 33.6902 3.35023 33.9302 3.35023C34.1035 3.35023 34.2168 3.3569 34.2702 3.37023C34.4035 3.50357 34.4968 3.6169 34.5502 3.71023C34.6168 3.80357 34.6502 3.91023 34.6502 4.03023C34.6502 4.15023 34.6235 4.26357 34.5702 4.37023C34.4768 4.61023 34.0635 5.61023 33.3302 7.37023L33.1702 7.75023C33.1568 7.7769 33.1035 7.88357 33.0102 8.07023C32.9302 8.24357 32.8902 8.46357 32.8902 8.73023C33.4102 8.50357 33.8768 8.3369 34.2902 8.23023C34.7168 8.11023 35.1902 8.02357 35.7102 7.97023H35.8302C36.3235 6.90357 36.8368 6.01023 37.3702 5.29023C37.9168 4.57023 38.6102 3.9769 39.4502 3.51023C39.5435 3.4569 39.6435 3.43023 39.7502 3.43023C39.8968 3.43023 40.0368 3.47023 40.1702 3.55023C40.3168 3.63023 40.4035 3.6769 40.4302 3.69023C40.4435 3.73023 40.4635 3.8169 40.4902 3.95023C40.5302 4.07023 40.5368 4.17023 40.5102 4.25023L41.3702 4.55023C41.4635 4.71023 41.5568 4.83023 41.6502 4.91023ZM41.1302 8.37023C41.1035 8.3169 41.0902 8.27023 41.0902 8.23023C41.0902 8.1769 41.1035 8.10357 41.1302 8.01023C41.1702 7.90357 41.1835 7.82357 41.1702 7.77023C41.1435 7.42357 41.1302 7.19023 41.1302 7.07023C41.1168 6.59023 41.0635 6.2169 40.9702 5.95023C40.8768 5.67023 40.6568 5.39023 40.3102 5.11023L39.8102 5.27023L39.5302 5.05023C39.0102 5.4369 38.5768 5.88357 38.2302 6.39023C37.8968 6.88357 37.5635 7.52357 37.2302 8.31023C36.5635 9.92357 36.0702 11.6036 35.7502 13.3502C35.7368 13.4169 35.7102 13.5236 35.6702 13.6702C35.6435 13.8036 35.6302 13.9236 35.6302 14.0302V15.6902C35.6302 15.9036 35.6835 16.1102 35.7902 16.3102C35.9102 16.5102 36.0702 16.6102 36.2702 16.6102C36.2968 16.6102 36.3635 16.5969 36.4702 16.5702C36.6968 16.4902 36.8768 16.4036 37.0102 16.3102C37.1568 16.2036 37.3168 16.0702 37.4902 15.9102C37.6102 15.7902 37.7502 15.6702 37.9102 15.5502C38.4568 15.1236 39.0102 14.3502 39.5702 13.2302C40.1302 12.1102 40.5235 11.1169 40.7502 10.2502C40.8035 10.0769 40.8568 9.79023 40.9102 9.39023C40.9902 8.9369 41.0635 8.5969 41.1302 8.37023ZM48.5434 4.31023C48.2634 4.72357 47.8634 5.40357 47.3434 6.35023C46.8368 7.28357 46.5568 7.90357 46.5034 8.21023C46.6901 8.29023 46.9968 8.33023 47.4234 8.33023C47.4901 8.33023 47.5834 8.3369 47.7034 8.35023C47.8368 8.36357 47.9434 8.3769 48.0234 8.39023C48.3834 8.4569 48.7501 8.58357 49.1234 8.77023C49.5101 8.9569 49.8301 9.17023 50.0834 9.41023C50.1368 9.46357 50.2301 9.58357 50.3634 9.77023C50.4034 9.82357 50.4901 9.94357 50.6234 10.1302C50.7568 10.3169 50.8634 10.5036 50.9434 10.6902C51.0234 10.8769 51.0701 11.0569 51.0834 11.2302C51.0968 11.3236 51.1034 11.4569 51.1034 11.6302C51.1034 12.3102 50.9434 12.9502 50.6234 13.5502C50.3034 14.1502 49.8634 14.7436 49.3034 15.3302C48.8768 15.7836 48.3101 16.1902 47.6034 16.5502C46.9101 16.8969 46.2234 17.1369 45.5434 17.2702C45.3968 17.2969 45.2034 17.3169 44.9634 17.3302C44.7368 17.3436 44.4968 17.3502 44.2434 17.3502C43.9368 17.3502 43.7634 17.3369 43.7234 17.3102C43.5368 17.2036 43.3168 17.0369 43.0634 16.8102C42.8234 16.5836 42.6701 16.3902 42.6034 16.2302C42.5768 16.1502 42.5634 16.0836 42.5634 16.0302C42.5634 15.9236 42.6034 15.7769 42.6834 15.5902C42.7634 15.3902 42.8101 15.2502 42.8234 15.1702C43.0368 14.1436 43.2834 13.1769 43.5634 12.2702C43.6168 12.0702 43.6901 11.8502 43.7834 11.6102C43.8768 11.3569 43.9434 11.1702 43.9834 11.0502C44.0368 10.9302 44.1434 10.6436 44.3034 10.1902L44.4434 9.73023C44.5768 9.25023 44.6968 8.8969 44.8034 8.67023C45.6434 6.79023 46.3234 5.3569 46.8434 4.37023C46.8034 4.3969 46.7368 4.41023 46.6434 4.41023C46.4834 4.41023 46.3301 4.34357 46.1834 4.21023C46.0501 4.0769 45.9834 3.93023 45.9834 3.77023C45.9834 3.46357 46.2434 3.2769 46.7634 3.21023C46.8568 3.18357 46.9568 3.1769 47.0634 3.19023C47.1701 3.19023 47.2434 3.19023 47.2834 3.19023C47.4834 3.19023 47.6701 3.17023 47.8434 3.13023C48.0834 3.10357 48.2701 3.09023 48.4034 3.09023C48.5901 3.09023 48.9368 3.0769 49.4434 3.05023C49.6568 3.05023 49.9768 3.04357 50.4034 3.03023C50.8434 3.00357 51.2168 2.99023 51.5234 2.99023C52.1634 2.99023 52.6634 3.0169 53.0234 3.07023C53.1701 3.0969 53.3368 3.15023 53.5234 3.23023C53.7234 3.2969 53.8901 3.35023 54.0234 3.39023C54.0368 3.39023 54.0634 3.3969 54.1034 3.41023C54.1568 3.42357 54.1834 3.44357 54.1834 3.47023C54.1834 3.60357 54.1434 3.7369 54.0634 3.87023C53.9968 4.00357 53.9034 4.09023 53.7834 4.13023C53.5168 4.22357 53.0234 4.27023 52.3034 4.27023C52.0501 4.27023 51.6434 4.2569 51.0834 4.23023L49.8634 4.21023C49.2768 4.21023 48.8368 4.24357 48.5434 4.31023ZM43.9834 16.1702C44.1168 16.1969 44.2768 16.2102 44.4634 16.2102C44.6501 16.2102 44.8701 16.1769 45.1234 16.1102C45.2568 16.1369 45.4168 16.1102 45.6034 16.0302C45.7901 15.9502 45.9234 15.9036 46.0034 15.8902C46.1501 15.8502 46.2968 15.7969 46.4434 15.7302C46.5901 15.6636 46.7368 15.5902 46.8834 15.5102C47.6434 15.0969 48.3434 14.5369 48.9834 13.8302C49.6234 13.1236 49.9434 12.4036 49.9434 11.6702C49.9434 11.4302 49.9034 11.1902 49.8234 10.9502C49.6901 10.5502 49.5101 10.2569 49.2834 10.0702C49.0701 9.88357 48.7368 9.73023 48.2834 9.61023C47.7234 9.46357 47.4168 9.38357 47.3634 9.37023C47.3368 9.3569 47.2834 9.36357 47.2034 9.39023C47.0434 9.44357 46.8368 9.47023 46.5834 9.47023C46.3434 9.47023 46.1634 9.47023 46.0434 9.47023L45.9034 9.71023C45.7568 9.95023 45.5034 10.5702 45.1434 11.5702C44.7968 12.5702 44.6234 13.1769 44.6234 13.3902C44.5168 13.6036 44.3768 14.0636 44.2034 14.7702C44.0434 15.4769 43.9701 15.9436 43.9834 16.1702ZM62.9903 4.69023C62.3236 4.69023 61.6436 4.76357 60.9503 4.91023C60.8436 4.9369 60.7636 4.9769 60.7103 5.03023C60.657 5.07023 60.6103 5.14357 60.5703 5.25023C60.397 5.7969 60.1703 6.36357 59.8903 6.95023C59.6236 7.5369 59.457 7.90357 59.3903 8.05023C58.9903 8.8769 58.7036 9.50357 58.5303 9.93023C58.0503 11.1436 57.497 12.2569 56.8703 13.2702C56.257 14.2836 55.517 15.3236 54.6503 16.3902C54.4503 16.6436 54.2036 16.9102 53.9103 17.1902C53.6303 17.4702 53.3903 17.6502 53.1903 17.7302C53.0836 17.7569 53.0036 17.7702 52.9503 17.7702C52.737 17.7702 52.5303 17.6902 52.3303 17.5302C52.1436 17.3836 52.0436 17.2102 52.0303 17.0102C52.0703 16.9036 52.137 16.8169 52.2303 16.7502C52.3236 16.6836 52.4303 16.6502 52.5503 16.6502C52.737 16.6502 53.137 16.2836 53.7503 15.5502C54.377 14.8036 54.9036 14.1369 55.3303 13.5502C55.3836 13.4702 55.4503 13.3502 55.5303 13.1902C55.6236 13.0302 55.697 12.9102 55.7503 12.8302C56.2036 12.0169 56.5236 11.5436 56.7103 11.4102C56.7236 11.3702 56.737 11.2969 56.7503 11.1902C56.7636 11.0702 56.7903 10.9836 56.8303 10.9302C56.8836 10.8636 56.957 10.7969 57.0503 10.7302L56.9903 10.5702C57.217 10.1436 57.417 9.72357 57.5903 9.31023C57.7503 8.9369 57.877 8.6569 57.9703 8.47023C57.997 8.4169 58.0436 8.3569 58.1103 8.29023C58.1903 8.22357 58.237 8.1569 58.2503 8.09023C58.2903 7.7969 58.3703 7.50357 58.4903 7.21023C58.6236 6.90357 58.817 6.49023 59.0703 5.97023C59.1103 5.90357 59.157 5.82357 59.2103 5.73023C59.2636 5.62357 59.317 5.50357 59.3703 5.37023C59.1436 5.37023 58.9236 5.4169 58.7103 5.51023C58.497 5.59023 58.237 5.7169 57.9303 5.89023C57.637 6.05023 57.3836 6.1769 57.1703 6.27023C56.957 6.35023 56.7436 6.39023 56.5303 6.39023C56.397 6.39023 56.2636 6.37023 56.1303 6.33023C56.037 6.1169 55.9903 5.93023 55.9903 5.77023C55.9903 5.4369 56.1303 5.20357 56.4103 5.07023C56.6636 4.95023 57.0236 4.8169 57.4903 4.67023L57.9303 4.51023L58.5703 4.27023L58.6303 4.25023H58.6503C59.3836 4.06357 59.997 3.87023 60.4903 3.67023C60.6636 3.67023 60.9703 3.64357 61.4103 3.59023C61.8636 3.52357 62.1303 3.47023 62.2103 3.43023C62.4236 3.43023 62.6703 3.46357 62.9503 3.53023C63.2436 3.58357 63.4236 3.67023 63.4903 3.79023C63.5303 3.8569 63.597 3.93023 63.6903 4.01023C63.7836 4.09023 63.8436 4.1569 63.8703 4.21023L64.2303 4.49023C64.3103 4.8369 64.3636 5.0969 64.3903 5.27023C64.417 5.47023 64.3436 6.0169 64.1703 6.91023C64.0103 7.79023 63.877 8.25023 63.7703 8.29023C63.7436 8.4769 63.7036 8.64357 63.6503 8.79023C63.637 8.87023 63.617 8.96357 63.5903 9.07023C63.5636 9.1769 63.5436 9.2969 63.5303 9.43023C63.5436 9.6569 63.457 10.0236 63.2703 10.5302C63.1636 10.8236 63.0903 11.0636 63.0503 11.2502C62.9703 11.7436 62.857 12.2302 62.7103 12.7102C62.5636 13.1902 62.3703 13.7569 62.1303 14.4102C61.797 15.3569 61.577 16.0369 61.4703 16.4502C61.417 16.5169 61.3636 16.6369 61.3103 16.8102C61.257 16.9702 61.1903 17.0902 61.1103 17.1702C60.9503 17.3302 60.7703 17.4102 60.5703 17.4102C60.4103 17.4102 60.2703 17.3569 60.1503 17.2502C60.0303 17.1436 59.9436 16.9969 59.8903 16.8102C60.0636 16.4502 60.2703 15.9436 60.5103 15.2902C60.7636 14.6369 60.9436 14.1102 61.0503 13.7102L61.2103 13.1102C61.3703 12.4169 61.5236 11.8902 61.6703 11.5302C61.7103 11.4236 61.7703 11.1436 61.8503 10.6902L61.9703 10.0502C62.2636 9.01023 62.497 8.09023 62.6703 7.29023C62.8436 6.4769 62.957 5.68357 63.0103 4.91023C62.9836 4.88357 62.9636 4.85023 62.9503 4.81023C62.9503 4.7569 62.9636 4.7169 62.9903 4.69023ZM72.9997 17.9702C72.933 17.9702 72.7864 17.9702 72.5597 17.9702C72.3464 17.9836 72.1397 17.9502 71.9397 17.8702C71.313 17.6302 70.9997 17.0369 70.9997 16.0902C70.9997 15.8769 71.0064 15.7169 71.0197 15.6102C71.0864 15.5169 71.133 15.1636 71.1597 14.5502C71.1864 13.8969 71.2397 13.5036 71.3197 13.3702C71.293 13.0902 71.3397 12.7236 71.4597 12.2702C71.5797 11.8036 71.7464 11.2436 71.9597 10.5902L72.0997 10.1502C71.993 10.1369 71.8264 10.1969 71.5997 10.3302C71.3864 10.4502 71.093 10.6302 70.7197 10.8702C70.213 11.2302 69.8264 11.4636 69.5597 11.5702C69.0664 11.7702 68.5864 12.0502 68.1197 12.4102C68.0397 12.4769 67.9064 12.8169 67.7197 13.4302C67.533 14.0302 67.433 14.4169 67.4197 14.5902C67.3664 14.6702 67.3264 14.8036 67.2997 14.9902C67.2997 15.1769 67.2597 15.3236 67.1797 15.4302C67.1397 16.0169 67.0797 16.4969 66.9997 16.8702C66.933 17.2436 66.7597 17.5236 66.4797 17.7102C66.1997 17.6836 65.993 17.6169 65.8597 17.5102C65.7397 17.4036 65.6664 17.1902 65.6397 16.8702L65.6997 16.1302C65.713 15.9836 65.753 15.4969 65.8197 14.6702C65.8864 13.8436 65.953 13.2636 66.0197 12.9302C66.0597 12.6769 66.1397 12.4702 66.2597 12.3102C66.3797 12.1502 66.493 12.0236 66.5997 11.9302C66.7197 11.8369 66.7997 11.7702 66.8397 11.7302C66.893 11.6236 67.0664 11.1569 67.3597 10.3302C67.6664 9.4769 67.8397 9.0169 67.8797 8.95023C67.893 8.83023 68.0597 8.32357 68.3797 7.43023C68.713 6.5369 68.9264 5.9569 69.0197 5.69023C69.4197 4.65023 69.6464 4.0369 69.6997 3.85023C69.7397 3.73023 69.7864 3.6569 69.8397 3.63023C69.9064 3.59023 69.9997 3.57023 70.1197 3.57023C70.293 3.57023 70.473 3.61023 70.6597 3.69023C70.8597 3.77023 70.9664 3.8769 70.9797 4.01023L70.9997 4.23023C70.9997 4.51023 70.9397 4.75023 70.8197 4.95023C70.673 5.20357 70.293 6.14357 69.6797 7.77023C69.0664 9.3969 68.7464 10.3036 68.7197 10.4902C68.7597 10.5436 68.9997 10.4702 69.4397 10.2702C69.5997 10.1902 69.733 10.1369 69.8397 10.1102C69.933 10.0569 70.1864 9.9169 70.5997 9.69023C71.0264 9.45023 71.413 9.2569 71.7597 9.11023C72.1197 8.95023 72.3997 8.86357 72.5997 8.85023C72.7064 8.66357 72.7797 8.52357 72.8197 8.43023C73.0997 7.8169 73.5597 6.99023 74.1997 5.95023C74.253 5.92357 74.2797 5.87023 74.2797 5.79023C74.2797 5.6969 74.2864 5.63023 74.2997 5.59023C74.3797 5.4569 74.493 5.28357 74.6397 5.07023C74.7997 4.84357 74.9064 4.71023 74.9597 4.67023C75.173 4.4969 75.6597 4.2569 76.4197 3.95023C76.4464 3.9369 76.4864 3.93023 76.5397 3.93023C76.593 3.93023 76.673 3.95023 76.7797 3.99023C76.8864 4.03023 76.973 4.04357 77.0397 4.03023C77.5597 4.1769 77.973 4.3969 78.2797 4.69023C78.5864 4.97023 78.8064 5.36357 78.9397 5.87023C78.953 5.92357 78.9997 6.09023 79.0797 6.37023C79.1597 6.65023 79.193 6.93023 79.1797 7.21023C79.2597 7.41023 79.2997 7.74357 79.2997 8.21023C79.2997 8.5969 79.2664 8.90357 79.1997 9.13023C79.1864 9.17023 79.1797 9.24357 79.1797 9.35023C79.1797 9.6969 79.0864 10.2169 78.8997 10.9102C78.713 11.5902 78.533 12.1302 78.3597 12.5302C78.133 13.0502 77.913 13.4902 77.6997 13.8502C77.4997 14.2102 77.2397 14.6436 76.9197 15.1502C76.8264 15.2969 76.733 15.4436 76.6397 15.5902C76.5597 15.7236 76.473 15.8569 76.3797 15.9902C76.2064 16.2702 75.913 16.5702 75.4997 16.8902C75.0864 17.1969 74.6464 17.4502 74.1797 17.6502C73.7264 17.8636 73.333 17.9702 72.9997 17.9702ZM72.5397 16.7902C72.5797 16.8036 72.6464 16.8102 72.7397 16.8102C73.033 16.8102 73.333 16.7236 73.6397 16.5502C73.9464 16.3636 74.273 16.1369 74.6197 15.8702C74.6864 15.8036 74.7864 15.6969 74.9197 15.5502C75.1197 15.3502 75.2197 15.2502 75.2197 15.2502C75.2197 15.1436 75.2464 15.0502 75.2997 14.9702C75.3664 14.8902 75.4597 14.7969 75.5797 14.6902C75.713 14.5702 75.7864 14.4836 75.7997 14.4302C75.8664 14.2836 75.9797 14.0836 76.1397 13.8302C76.2997 13.5636 76.433 13.3436 76.5397 13.1702C76.8197 12.7169 77.0797 12.1502 77.3197 11.4702C77.573 10.7902 77.733 10.1902 77.7997 9.67023C77.853 9.5769 77.8797 9.4769 77.8797 9.37023C77.893 9.25023 77.8997 9.16357 77.8997 9.11023C77.913 9.03023 77.933 8.9369 77.9597 8.83023C77.9864 8.72357 77.9997 8.63023 77.9997 8.55023C78.0397 7.75023 77.9864 6.9769 77.8397 6.23023C77.7064 5.48357 77.393 5.11023 76.8997 5.11023C76.713 5.11023 76.4864 5.19023 76.2197 5.35023C76.0064 5.8969 75.6464 6.4969 75.1397 7.15023C74.9664 7.3769 74.713 7.8169 74.3797 8.47023C74.0597 9.12357 73.773 9.7769 73.5197 10.4302C73.2797 11.0702 73.1597 11.5236 73.1597 11.7902C73.0397 12.0702 72.9197 12.4636 72.7997 12.9702C72.6797 13.4636 72.6197 13.8569 72.6197 14.1502C72.6197 14.3236 72.593 14.5836 72.5397 14.9302C72.4864 15.3302 72.4664 15.6236 72.4797 15.8102C72.453 15.8636 72.4397 15.9436 72.4397 16.0502C72.4397 16.1969 72.4464 16.3369 72.4597 16.4702C72.4864 16.6036 72.513 16.7102 72.5397 16.7902ZM94.6403 3.57023C94.8136 3.61023 94.9536 3.71023 95.0603 3.87023C95.1803 4.0169 95.2403 4.19023 95.2403 4.39023C95.2403 4.48357 95.2336 4.5569 95.2203 4.61023C95.1936 4.69023 95.1536 4.78357 95.1003 4.89023C95.0603 4.9969 95.0203 5.11023 94.9803 5.23023C94.9003 5.39023 94.767 5.68357 94.5803 6.11023C94.407 6.5369 94.267 6.87023 94.1603 7.11023C93.7603 8.0969 93.5136 8.6569 93.4203 8.79023C93.1003 9.40357 92.807 9.9369 92.5403 10.3902C92.1136 11.1502 91.6403 11.9236 91.1203 12.7102C91.0003 12.8969 90.7536 13.2436 90.3803 13.7502C90.007 14.2436 89.7403 14.5836 89.5803 14.7702C89.367 15.0902 89.1403 15.3836 88.9003 15.6502C88.6603 15.9036 88.3136 16.2569 87.8603 16.7102C87.287 17.3102 86.9336 17.6769 86.8003 17.8102C86.707 17.9436 86.5803 18.0102 86.4203 18.0102C86.327 18.0102 86.227 17.9769 86.1203 17.9102C85.8536 17.7636 85.7203 17.6102 85.7203 17.4502L85.7603 17.2902C85.787 17.2236 86.0203 16.9636 86.4603 16.5102C86.9136 16.0569 87.267 15.7102 87.5203 15.4702C87.587 15.4036 87.747 15.2302 88.0003 14.9502C88.2536 14.6702 88.4736 14.3836 88.6603 14.0902C88.127 13.6369 87.7336 12.9702 87.4803 12.0902C87.4536 12.0102 87.4136 11.9036 87.3603 11.7702C87.3203 11.6369 87.307 11.5169 87.3203 11.4102L86.9803 9.65023C87.007 9.57023 87.0203 9.51023 87.0203 9.47023C87.0203 9.4169 87.007 9.34357 86.9803 9.25023C86.967 9.1569 86.9536 9.0769 86.9403 9.01023L86.8803 5.53023L86.9203 4.95023C86.9336 4.7769 86.947 4.56357 86.9603 4.31023C86.987 4.04357 87.007 3.87023 87.0203 3.79023C87.0203 3.7369 87.0203 3.64357 87.0203 3.51023C87.0203 3.3769 87.0403 3.27023 87.0803 3.19023C87.1336 3.0969 87.2203 3.05023 87.3403 3.05023C87.5136 3.02357 87.6803 3.07023 87.8403 3.19023C88.0136 3.2969 88.1403 3.43023 88.2203 3.59023C88.3136 3.7369 88.3336 3.85023 88.2803 3.93023C88.2136 4.05023 88.1803 4.22357 88.1803 4.45023C88.1803 4.6369 88.1736 4.77023 88.1603 4.85023C88.1336 5.13023 88.107 5.5169 88.0803 6.01023C88.067 6.49023 88.0603 6.99023 88.0603 7.51023C88.0603 7.91023 88.067 8.1769 88.0803 8.31023C88.187 9.43023 88.2536 10.0369 88.2803 10.1302C88.2936 10.4769 88.4136 11.0236 88.6403 11.7702C88.867 12.5169 89.067 13.0502 89.2403 13.3702L89.5203 13.0302C89.5736 12.9502 89.667 12.8302 89.8003 12.6702C90.027 12.3636 90.167 12.1436 90.2203 12.0102C90.287 11.8636 90.4336 11.6036 90.6603 11.2302C90.8203 10.9902 90.9336 10.8036 91.0003 10.6702C91.0536 10.5636 91.1803 10.3436 91.3803 10.0102C91.607 9.61023 91.7403 9.3769 91.7803 9.31023L93.0803 6.85023C93.2003 6.4769 93.3003 6.18357 93.3803 5.97023C93.407 5.89023 93.5003 5.61023 93.6603 5.13023C93.8336 4.6369 93.947 4.19023 94.0003 3.79023C94.027 3.71023 94.0536 3.6569 94.0803 3.63023C94.1203 3.59023 94.1803 3.57023 94.2603 3.57023C94.3136 3.57023 94.3736 3.57023 94.4403 3.57023C94.5203 3.5569 94.587 3.5569 94.6403 3.57023ZM106.115 4.97023C106.141 5.10357 106.108 5.22357 106.015 5.33023C105.935 5.42357 105.748 5.55023 105.455 5.71023C104.855 6.00357 104.515 6.22357 104.435 6.37023C104.368 6.42357 104.215 6.5369 103.975 6.71023C103.748 6.88357 103.461 7.0969 103.115 7.35023C102.595 7.6969 102.141 8.02357 101.755 8.33023C101.381 8.6369 101.135 8.87023 101.015 9.03023C100.975 9.03023 100.921 9.05023 100.855 9.09023C100.801 9.13023 100.755 9.14357 100.715 9.13023C100.688 9.14357 100.628 9.18357 100.535 9.25023C100.441 9.3169 100.375 9.3769 100.335 9.43023C100.295 9.5369 100.228 9.64357 100.135 9.75023C100.055 9.84357 99.9547 9.88357 99.8347 9.87023C99.5814 10.0036 99.0814 10.3702 98.3347 10.9702C98.428 11.9969 98.688 12.8969 99.1147 13.6702C99.5014 14.5236 99.8947 15.1502 100.295 15.5502C100.575 15.8569 100.835 16.0969 101.075 16.2702C101.328 16.4436 101.521 16.5302 101.655 16.5302C101.775 16.5702 101.941 16.6636 102.155 16.8102C102.368 16.9569 102.481 17.0769 102.495 17.1702C102.508 17.1969 102.515 17.2502 102.515 17.3302C102.515 17.5302 102.481 17.6769 102.415 17.7702C102.361 17.8636 102.315 17.9302 102.275 17.9702C102.235 18.0236 102.168 18.0502 102.075 18.0502C101.928 18.0502 101.748 17.9969 101.535 17.8902C101.321 17.9036 100.955 17.7036 100.435 17.2902C99.9147 16.8769 99.5147 16.4969 99.2347 16.1502C98.8747 15.6302 98.5614 15.1569 98.2947 14.7302C98.0414 14.3036 97.848 13.8369 97.7147 13.3302C97.6614 13.0902 97.5614 12.7302 97.4147 12.2502C97.3214 11.9969 97.268 11.8169 97.2547 11.7102V11.3302L97.0147 11.9302C97.0014 11.9702 96.9147 12.1902 96.7547 12.5902C96.608 12.9902 96.3947 13.6969 96.1147 14.7102L95.7947 15.7502C95.488 16.7102 95.2814 17.3169 95.1747 17.5702C95.0814 17.8236 94.9814 17.9502 94.8747 17.9502C94.8214 17.9502 94.748 17.9169 94.6547 17.8502C94.5747 17.7969 94.5147 17.7569 94.4747 17.7302C94.368 17.6636 94.2947 17.6036 94.2547 17.5502C94.2147 17.4969 94.1947 17.4302 94.1947 17.3502C94.1947 17.2569 94.228 17.0902 94.2947 16.8502C94.2814 16.6769 94.2947 16.5102 94.3347 16.3502C94.3747 16.1902 94.3947 16.0969 94.3947 16.0702C94.488 16.0702 94.5347 15.9636 94.5347 15.7502C94.5347 15.6436 94.5947 15.4102 94.7147 15.0502L94.8947 14.4302L95.1347 13.8502C95.2814 13.4769 95.3547 13.2769 95.3547 13.2502C95.3547 13.0769 95.4414 12.8569 95.6147 12.5902C95.668 12.4302 95.7147 12.2569 95.7547 12.0702C95.7947 11.8836 95.8147 11.7302 95.8147 11.6102C95.8414 11.5436 95.9147 11.3902 96.0347 11.1502C96.1547 10.9102 96.2414 10.6702 96.2947 10.4302C96.308 10.3636 96.328 10.2902 96.3547 10.2102C96.3947 10.1302 96.4347 10.0302 96.4747 9.91023L97.1347 8.11023L97.4347 7.43023C97.4614 7.36357 97.548 7.1569 97.6947 6.81023C97.8547 6.46357 97.9614 6.29023 98.0147 6.29023V6.07023C98.0147 6.0169 98.088 5.84357 98.2347 5.55023L98.4747 5.07023C98.5814 4.8969 98.6614 4.73023 98.7147 4.57023C98.7814 4.3969 98.8214 4.28357 98.8347 4.23023C98.848 4.20357 98.8747 4.1569 98.9147 4.09023C98.9547 4.02357 99.0014 3.96357 99.0547 3.91023C99.2014 3.80357 99.3347 3.75023 99.4547 3.75023C99.6414 3.75023 99.8014 3.88357 99.9347 4.15023C100.028 4.3369 100.075 4.50357 100.075 4.65023C100.075 4.78357 100.015 4.94357 99.8947 5.13023C99.4414 6.10357 98.9814 7.10357 98.5147 8.13023C98.0614 9.1569 97.8347 9.75023 97.8347 9.91023L98.5147 9.41023C98.8614 9.06357 99.4147 8.60357 100.175 8.03023L102.635 6.03023C103.008 5.84357 103.448 5.55023 103.955 5.15023C104.088 5.07023 104.195 4.9969 104.275 4.93023C104.355 4.86357 104.421 4.8169 104.475 4.79023C104.555 4.72357 104.715 4.61023 104.955 4.45023C105.195 4.2769 105.348 4.1969 105.415 4.21023C105.561 4.14357 105.721 4.21023 105.895 4.41023C106.068 4.61023 106.141 4.7969 106.115 4.97023ZM105.516 17.4902C105.409 17.4902 105.282 17.4236 105.136 17.2902C104.989 17.1569 104.916 17.0169 104.916 16.8702C104.916 16.8436 104.909 16.7902 104.896 16.7102C104.882 16.6302 104.856 16.5502 104.816 16.4702C104.816 16.1369 104.849 15.8702 104.916 15.6702C104.916 15.5236 104.936 15.3636 104.976 15.1902C105.016 15.0169 105.062 14.8769 105.116 14.7702C105.116 14.6636 105.142 14.5236 105.196 14.3502C105.249 14.1636 105.282 14.0369 105.296 13.9702L105.416 13.5502L105.756 12.5302C105.822 12.3702 105.869 12.2369 105.896 12.1302C105.922 12.0236 105.936 11.9236 105.936 11.8302C106.016 11.5636 106.116 11.2236 106.236 10.8102C106.356 10.3969 106.456 10.0369 106.536 9.73023C106.602 9.66357 106.636 9.56357 106.636 9.43023C106.662 9.35023 106.722 9.16357 106.816 8.87023C106.909 8.56357 107.016 8.24357 107.136 7.91023C107.336 7.32357 107.489 6.84357 107.596 6.47023C107.702 6.0969 107.756 5.8369 107.756 5.69023C107.756 5.5969 107.736 5.5169 107.696 5.45023C107.669 5.37023 107.649 5.3169 107.636 5.29023C107.582 5.1569 107.556 5.0769 107.556 5.05023C107.556 4.9969 107.582 4.94357 107.636 4.89023C107.689 4.8369 107.729 4.78357 107.756 4.73023C107.796 4.66357 107.822 4.6169 107.836 4.59023C107.836 4.55023 108.109 4.4369 108.656 4.25023C109.216 4.06357 109.716 3.90357 110.156 3.77023H110.976C111.349 3.82357 111.716 3.93023 112.076 4.09023C112.436 4.25023 112.736 4.45023 112.976 4.69023C113.136 4.85023 113.276 5.03023 113.396 5.23023C113.529 5.43023 113.696 5.75023 113.896 6.19023C113.896 6.24357 113.909 6.36357 113.936 6.55023C113.976 6.72357 113.996 6.8769 113.996 7.01023C113.996 7.61023 113.776 8.25023 113.336 8.93023C112.896 9.61023 112.276 10.2769 111.476 10.9302C111.036 11.2769 110.569 11.5436 110.076 11.7302C109.596 11.9169 109.136 12.0102 108.696 12.0102C108.509 12.0102 108.322 11.9902 108.136 11.9502C107.989 11.8969 107.869 11.7636 107.776 11.5502C107.696 11.3236 107.689 11.1769 107.756 11.1102C107.809 11.0969 107.956 11.0902 108.196 11.0902C108.436 11.0902 108.789 11.0036 109.256 10.8302C109.602 10.7102 109.882 10.5836 110.096 10.4502C110.909 9.94357 111.536 9.33023 111.976 8.61023C112.162 8.3169 112.342 7.95023 112.516 7.51023C112.689 7.07023 112.776 6.73023 112.776 6.49023C112.802 6.3569 112.816 6.2569 112.816 6.19023C112.816 5.92357 112.696 5.70357 112.456 5.53023C112.229 5.34357 111.902 5.23023 111.476 5.19023C111.436 5.1769 111.369 5.17023 111.276 5.17023C110.982 5.17023 110.589 5.2369 110.096 5.37023C109.602 5.49023 109.289 5.5969 109.156 5.69023C109.116 5.69023 109.082 5.7369 109.056 5.83023C109.029 5.92357 108.996 6.01023 108.956 6.09023C108.956 6.1969 108.909 6.3969 108.816 6.69023C108.736 6.98357 108.649 7.2569 108.556 7.51023L108.296 8.27023C108.122 8.71023 108.002 9.0569 107.936 9.31023C107.896 9.48357 107.842 9.67023 107.776 9.87023C107.709 10.0569 107.662 10.1769 107.636 10.2302C107.636 10.2569 107.596 10.3769 107.516 10.5902C107.436 10.8036 107.376 10.9836 107.336 11.1302C107.216 11.7569 107.049 12.3302 106.836 12.8502C106.529 13.8502 106.376 14.5502 106.376 14.9502C106.376 15.0969 106.396 15.2036 106.436 15.2702C106.556 15.2702 106.616 15.3436 106.616 15.4902C106.616 15.7036 106.489 16.0636 106.236 16.5702C106.102 16.9169 106.002 17.1502 105.936 17.2702C105.882 17.3902 105.829 17.4569 105.776 17.4702C105.736 17.4836 105.649 17.4902 105.516 17.4902ZM121.449 18.5702C121.343 18.5702 121.216 18.4836 121.069 18.3102C120.909 18.1502 120.829 17.9102 120.829 17.5902C120.829 16.9769 120.816 16.5569 120.789 16.3302L120.769 14.9702C120.769 14.6102 120.789 14.3969 120.829 14.3302C120.816 14.2636 120.809 14.1636 120.809 14.0302C120.809 13.9102 120.816 13.7702 120.829 13.6102C120.856 13.4369 120.869 13.3036 120.869 13.2102L120.789 12.6702H119.689C119.476 12.6969 119.249 12.7102 119.009 12.7102C118.543 12.7102 117.796 12.6769 116.769 12.6102L116.509 13.0302C116.229 13.4569 116.016 13.8502 115.869 14.2102C115.576 14.9702 115.289 15.5569 115.009 15.9702C114.636 16.6902 114.383 17.0502 114.249 17.0502H114.129C114.036 17.0502 113.949 17.0369 113.869 17.0102C113.803 16.9969 113.716 16.9502 113.609 16.8702C113.369 16.7636 113.249 16.6036 113.249 16.3902C113.249 16.1236 113.403 15.7769 113.709 15.3502L113.969 14.9302C113.969 14.8502 114.143 14.4769 114.489 13.8102C114.836 13.1436 115.069 12.7836 115.189 12.7302C115.309 12.6102 115.369 12.4902 115.369 12.3702C115.369 12.2369 115.289 12.1036 115.129 11.9702C115.049 11.9302 115.009 11.8769 115.009 11.8102C115.009 11.7302 115.056 11.6569 115.149 11.5902C115.243 11.5236 115.349 11.4902 115.469 11.4902C115.536 11.4502 115.596 11.4169 115.649 11.3902C115.716 11.3636 115.763 11.3436 115.789 11.3302C115.829 11.3036 115.849 11.2702 115.849 11.2302C115.849 11.1636 116.009 10.8236 116.329 10.2102C116.649 9.58357 116.896 9.16357 117.069 8.95023C117.203 8.59023 117.316 8.33023 117.409 8.17023C117.516 8.01023 117.583 7.8969 117.609 7.83023C117.676 7.76357 117.809 7.54357 118.009 7.17023C118.036 7.13023 118.123 6.98357 118.269 6.73023C118.403 6.5969 118.536 6.44357 118.669 6.27023C118.816 6.08357 118.909 5.96357 118.949 5.91023C119.003 5.8169 119.083 5.70357 119.189 5.57023C119.256 5.41023 119.376 5.2169 119.549 4.99023C119.723 4.75023 119.829 4.60357 119.869 4.55023C120.056 4.3369 120.203 4.19023 120.309 4.11023C120.429 4.0169 120.556 3.97023 120.689 3.97023C120.809 3.97023 120.949 4.01023 121.109 4.09023C121.416 4.22357 121.643 4.4369 121.789 4.73023C121.936 5.02357 122.029 5.45023 122.069 6.01023C122.083 6.10357 122.109 6.31023 122.149 6.63023C122.203 6.95023 122.229 7.23023 122.229 7.47023C122.229 7.64357 122.209 7.78357 122.169 7.89023V8.77023C122.169 9.21023 122.183 9.5369 122.209 9.75023C122.169 9.8969 122.149 10.1369 122.149 10.4702L122.169 11.2502C122.169 11.4502 122.163 11.6169 122.149 11.7502L122.129 12.4902L122.109 13.2302C122.096 13.5636 122.089 13.9836 122.089 14.4902L122.109 15.7502V16.5302C122.109 17.2902 122.063 17.8102 121.969 18.0902C121.889 18.3836 121.716 18.5436 121.449 18.5702ZM117.389 11.5702C117.483 11.5569 117.676 11.5369 117.969 11.5102C118.276 11.4836 118.583 11.4769 118.889 11.4902C119.263 11.4636 119.516 11.4502 119.649 11.4502C119.823 11.4502 120.003 11.4569 120.189 11.4702C120.376 11.4702 120.483 11.4636 120.509 11.4502C120.763 11.4636 120.889 11.2302 120.889 10.7502C120.823 10.0569 120.789 9.06357 120.789 7.77023C120.789 7.2769 120.796 6.94357 120.809 6.77023C120.809 6.5569 120.796 6.35023 120.769 6.15023C120.756 5.95023 120.743 5.82357 120.729 5.77023C120.676 5.70357 120.436 5.9369 120.009 6.47023C119.583 6.99023 119.296 7.3769 119.149 7.63023C119.069 7.7369 118.963 7.92357 118.829 8.19023C118.763 8.2969 118.689 8.42357 118.609 8.57023C118.543 8.7169 118.456 8.8769 118.349 9.05023C117.643 10.1436 117.289 10.9102 117.289 11.3502C117.289 11.4702 117.323 11.5436 117.389 11.5702ZM125.828 17.6102C125.655 17.3702 125.048 17.2702 124.008 17.3102L123.828 17.3302C123.575 17.3302 123.355 17.2702 123.168 17.1502C122.982 17.0302 122.908 16.8969 122.948 16.7502C122.975 16.4036 123.528 16.2236 124.608 16.2102L125.668 16.1902L125.868 15.7902C125.975 15.4836 126.128 14.9902 126.328 14.3102C126.395 14.0569 126.535 13.6302 126.748 13.0302C127.162 11.7502 127.382 11.0569 127.408 10.9502C127.475 10.7902 127.582 10.4702 127.728 9.99023C127.875 9.51023 127.988 9.1169 128.068 8.81023C128.695 6.8769 128.948 5.8969 128.828 5.87023C128.695 5.8569 128.328 5.88357 127.728 5.95023C127.142 6.00357 126.815 6.05023 126.748 6.09023C126.708 6.14357 126.642 6.17023 126.548 6.17023C126.468 6.17023 126.382 6.14357 126.288 6.09023C126.195 6.02357 126.135 5.95023 126.108 5.87023C126.095 5.8169 126.088 5.74357 126.088 5.65023C126.088 5.5569 126.128 5.48357 126.208 5.43023C126.355 5.31023 126.675 5.1769 127.168 5.03023C127.675 4.87023 128.162 4.76357 128.628 4.71023C128.855 4.68357 129.082 4.6369 129.308 4.57023C129.548 4.49023 129.728 4.3969 129.848 4.29023C130.128 4.1969 130.362 4.1569 130.548 4.17023C130.642 4.2369 130.868 4.27023 131.228 4.27023C131.535 4.27023 131.768 4.26357 131.928 4.25023C132.408 4.1969 132.815 4.17023 133.148 4.17023C133.402 4.17023 133.582 4.1969 133.688 4.25023C133.808 4.30357 133.902 4.39023 133.968 4.51023C134.022 4.72357 134.048 4.86357 134.048 4.93023C134.048 5.18357 133.902 5.30357 133.608 5.29023C133.382 5.34357 132.835 5.38357 131.968 5.41023C131.022 5.49023 130.515 5.58357 130.448 5.69023C130.382 5.7569 130.328 5.8169 130.288 5.87023C130.262 5.92357 130.228 5.9769 130.188 6.03023C130.202 6.08357 130.168 6.2569 130.088 6.55023C130.022 6.83023 129.935 7.1169 129.828 7.41023L129.468 8.47023C129.095 9.63023 128.855 10.3436 128.748 10.6102C128.655 10.8369 128.588 11.0702 128.548 11.3102C128.322 12.0969 128.135 12.7236 127.988 13.1902C127.842 13.6436 127.728 14.0102 127.648 14.2902C127.395 15.0369 127.202 15.6636 127.068 16.1702L128.208 16.0702C128.995 15.9902 129.508 15.9502 129.748 15.9502C129.935 15.9502 130.062 15.9702 130.128 16.0102C130.208 16.0502 130.268 16.1302 130.308 16.2502C130.468 16.4502 130.548 16.6169 130.548 16.7502C130.548 16.9102 130.422 17.0236 130.168 17.0902C129.915 17.1569 129.522 17.1836 128.988 17.1702C128.375 17.1969 127.862 17.2169 127.448 17.2302C127.048 17.2569 126.775 17.2902 126.628 17.3302C126.495 17.3702 126.415 17.4369 126.388 17.5302C126.388 17.6369 126.328 17.6902 126.208 17.6902C126.075 17.6902 125.948 17.6636 125.828 17.6102ZM129.008 1.99023C128.915 1.8969 128.835 1.78357 128.768 1.65023C128.702 1.5169 128.682 1.4169 128.708 1.35023C128.828 0.9369 128.962 0.670234 129.108 0.550234C129.135 0.523567 129.175 0.483566 129.228 0.430233C129.295 0.363566 129.348 0.323567 129.388 0.310233C129.468 0.243567 129.562 0.210233 129.668 0.210233C129.895 0.210233 130.062 0.370233 130.168 0.690233C130.262 0.850234 130.308 0.9769 130.308 1.07023C130.308 1.16357 130.282 1.2569 130.228 1.35023C130.175 1.44357 130.088 1.57023 129.968 1.73023C129.742 2.0369 129.528 2.19023 129.328 2.19023C129.208 2.19023 129.102 2.12357 129.008 1.99023ZM131.588 1.99023C131.495 1.8969 131.415 1.78357 131.348 1.65023C131.282 1.5169 131.262 1.4169 131.288 1.35023C131.408 0.9369 131.542 0.670234 131.688 0.550234C131.715 0.523567 131.762 0.483566 131.828 0.430233C131.895 0.363566 131.948 0.323567 131.988 0.310233C132.068 0.243567 132.162 0.210233 132.268 0.210233C132.482 0.210233 132.642 0.370233 132.748 0.690233C132.842 0.850234 132.888 0.9769 132.888 1.07023C132.888 1.16357 132.862 1.2569 132.808 1.35023C132.755 1.44357 132.668 1.57023 132.548 1.73023C132.322 2.0369 132.115 2.19023 131.928 2.19023C131.795 2.19023 131.682 2.12357 131.588 1.99023ZM132.596 18.6502C132.569 18.6369 132.516 18.6169 132.436 18.5902C132.356 18.5636 132.269 18.5502 132.176 18.5502C132.016 18.5102 131.883 18.4236 131.776 18.2902C131.683 18.1569 131.636 18.0036 131.636 17.8302C131.636 17.7369 131.643 17.6636 131.656 17.6102C131.696 17.5702 131.729 17.4636 131.756 17.2902C131.796 17.1302 131.816 16.9836 131.816 16.8502C131.856 16.7702 131.889 16.6902 131.916 16.6102C131.943 16.5169 131.976 16.3902 132.016 16.2302C132.123 15.6436 132.369 14.6569 132.756 13.2702C133.143 11.8836 133.383 11.1436 133.476 11.0502V10.8302C133.476 10.7902 133.489 10.7102 133.516 10.5902C133.543 10.4702 133.603 10.3436 133.696 10.2102C133.749 10.0502 133.789 9.8969 133.816 9.75023C133.856 9.59023 133.883 9.47023 133.896 9.39023C133.949 9.32357 134.036 9.12357 134.156 8.79023C134.289 8.4569 134.376 8.2369 134.416 8.13023C134.509 7.8769 134.623 7.58357 134.756 7.25023C134.903 6.90357 135.003 6.6769 135.056 6.57023V6.47023C135.083 6.44357 135.149 6.31023 135.256 6.07023C135.376 5.8169 135.476 5.60357 135.556 5.43023C135.649 5.2169 135.896 4.66357 136.296 3.77023C136.336 3.6769 136.396 3.56357 136.476 3.43023C136.569 3.28357 136.616 3.18357 136.616 3.13023C136.669 3.0369 136.763 2.99023 136.896 2.99023C137.016 2.99023 137.136 3.0369 137.256 3.13023C137.389 3.21023 137.489 3.3169 137.556 3.45023L137.756 3.77023L137.036 5.21023C136.836 5.5569 136.663 5.89023 136.516 6.21023C136.369 6.53023 136.296 6.7169 136.296 6.77023C136.243 6.90357 136.136 7.1769 135.976 7.59023C135.829 8.00357 135.709 8.3569 135.616 8.65023C135.549 8.85023 135.469 9.06357 135.376 9.29023C135.283 9.50357 135.216 9.6569 135.176 9.75023C135.069 9.99023 135.016 10.1236 135.016 10.1502C135.016 10.0969 135.816 10.0702 137.416 10.0702C137.669 10.0702 138.116 10.0636 138.756 10.0502C139.409 10.0369 139.816 10.0169 139.976 9.99023L141.016 9.89023L141.696 7.83023C141.829 7.36357 142.123 6.4569 142.576 5.11023C142.776 4.5369 142.936 4.17023 143.056 4.01023C143.176 3.8369 143.323 3.75023 143.496 3.75023C143.563 3.75023 143.656 3.78357 143.776 3.85023C143.909 3.90357 143.996 3.9769 144.036 4.07023C144.183 4.2169 144.256 4.37023 144.256 4.53023C144.256 4.7169 144.149 4.9769 143.936 5.31023C143.776 5.59023 143.549 6.1169 143.256 6.89023C143.136 7.25023 143.063 7.4569 143.036 7.51023C143.036 7.79023 142.969 7.9969 142.836 8.13023C142.783 8.18357 142.689 8.3769 142.556 8.71023C142.423 9.03023 142.356 9.2169 142.356 9.27023C142.356 9.3769 142.336 9.4969 142.296 9.63023C142.256 9.75023 142.209 9.8369 142.156 9.89023L142.016 10.3702C141.549 12.0636 141.183 13.2369 140.916 13.8902C140.916 13.9569 140.883 14.0769 140.816 14.2502C140.749 14.4236 140.716 14.5436 140.716 14.6102C140.689 14.7036 140.629 14.8902 140.536 15.1702C140.443 15.4502 140.396 15.6169 140.396 15.6702C140.369 15.8169 140.316 16.0502 140.236 16.3702C140.036 17.2769 139.936 17.7702 139.936 17.8502C139.909 17.8769 139.869 17.8902 139.816 17.8902C139.763 17.8902 139.676 17.8702 139.556 17.8302C139.449 17.7902 139.369 17.7569 139.316 17.7302C138.996 17.5569 138.836 17.3569 138.836 17.1302C138.836 16.9836 138.896 16.7902 139.016 16.5502C139.056 16.4836 139.183 16.0502 139.396 15.2502L139.576 14.5102C139.656 14.2969 139.836 13.6636 140.116 12.6102C140.343 11.7969 140.469 11.3769 140.496 11.3502V11.1502C140.456 11.0836 139.969 11.0502 139.036 11.0502C137.983 11.0502 137.016 11.1036 136.136 11.2102H135.196H134.676C134.609 11.3569 134.403 11.9769 134.056 13.0702C133.723 14.1502 133.536 14.8302 133.496 15.1102C133.403 15.5502 133.256 16.1636 133.056 16.9502C132.856 17.7236 132.703 18.2902 132.596 18.6502ZM153.996 3.57023C154.169 3.61023 154.309 3.71023 154.416 3.87023C154.536 4.0169 154.596 4.19023 154.596 4.39023C154.596 4.48357 154.589 4.5569 154.576 4.61023C154.549 4.69023 154.509 4.78357 154.456 4.89023C154.416 4.9969 154.376 5.11023 154.336 5.23023C154.256 5.39023 154.122 5.68357 153.936 6.11023C153.762 6.5369 153.622 6.87023 153.516 7.11023C153.116 8.0969 152.869 8.6569 152.776 8.79023C152.456 9.40357 152.162 9.9369 151.896 10.3902C151.469 11.1502 150.996 11.9236 150.476 12.7102C150.356 12.8969 150.109 13.2436 149.736 13.7502C149.362 14.2436 149.096 14.5836 148.936 14.7702C148.722 15.0902 148.496 15.3836 148.256 15.6502C148.016 15.9036 147.669 16.2569 147.216 16.7102C146.642 17.3102 146.289 17.6769 146.156 17.8102C146.062 17.9436 145.936 18.0102 145.776 18.0102C145.682 18.0102 145.582 17.9769 145.476 17.9102C145.209 17.7636 145.076 17.6102 145.076 17.4502L145.116 17.2902C145.142 17.2236 145.376 16.9636 145.816 16.5102C146.269 16.0569 146.622 15.7102 146.876 15.4702C146.942 15.4036 147.102 15.2302 147.356 14.9502C147.609 14.6702 147.829 14.3836 148.016 14.0902C147.482 13.6369 147.089 12.9702 146.836 12.0902C146.809 12.0102 146.769 11.9036 146.716 11.7702C146.676 11.6369 146.662 11.5169 146.676 11.4102L146.336 9.65023C146.362 9.57023 146.376 9.51023 146.376 9.47023C146.376 9.4169 146.362 9.34357 146.336 9.25023C146.322 9.1569 146.309 9.0769 146.296 9.01023L146.236 5.53023L146.276 4.95023C146.289 4.7769 146.302 4.56357 146.316 4.31023C146.342 4.04357 146.362 3.87023 146.376 3.79023C146.376 3.7369 146.376 3.64357 146.376 3.51023C146.376 3.3769 146.396 3.27023 146.436 3.19023C146.489 3.0969 146.576 3.05023 146.696 3.05023C146.869 3.02357 147.036 3.07023 147.196 3.19023C147.369 3.2969 147.496 3.43023 147.576 3.59023C147.669 3.7369 147.689 3.85023 147.636 3.93023C147.569 4.05023 147.536 4.22357 147.536 4.45023C147.536 4.6369 147.529 4.77023 147.516 4.85023C147.489 5.13023 147.462 5.5169 147.436 6.01023C147.422 6.49023 147.416 6.99023 147.416 7.51023C147.416 7.91023 147.422 8.1769 147.436 8.31023C147.542 9.43023 147.609 10.0369 147.636 10.1302C147.649 10.4769 147.769 11.0236 147.996 11.7702C148.222 12.5169 148.422 13.0502 148.596 13.3702L148.876 13.0302C148.929 12.9502 149.022 12.8302 149.156 12.6702C149.382 12.3636 149.522 12.1436 149.576 12.0102C149.642 11.8636 149.789 11.6036 150.016 11.2302C150.176 10.9902 150.289 10.8036 150.356 10.6702C150.409 10.5636 150.536 10.3436 150.736 10.0102C150.962 9.61023 151.096 9.3769 151.136 9.31023L152.436 6.85023C152.556 6.4769 152.656 6.18357 152.736 5.97023C152.762 5.89023 152.856 5.61023 153.016 5.13023C153.189 4.6369 153.302 4.19023 153.356 3.79023C153.382 3.71023 153.409 3.6569 153.436 3.63023C153.476 3.59023 153.536 3.57023 153.616 3.57023C153.669 3.57023 153.729 3.57023 153.796 3.57023C153.876 3.5569 153.942 3.5569 153.996 3.57023Z" fill="white"/>
</svg>
