<svg width="46" height="41" viewBox="0 0 46 41" fill="none" xmlns="http://www.w3.org/2000/svg">
<path fill-rule="evenodd" clip-rule="evenodd" d="M1.11179 23.0551C1.11179 19.8367 3.8035 12.9904 11.7031 12.9904V26.0393H9.59652V27.0341H23.5817V28.497C21.2021 29.6478 16.4428 32.7803 16.4428 36.104C16.4428 37.7892 17.5351 38.5616 18.0813 38.7372C17.6326 37.5474 17.0748 34.8167 18.4323 33.4123C20.7769 30.9868 22.0431 30.3509 23.09 29.825C23.3818 29.6785 23.6565 29.5405 23.9328 29.3747C24.0888 29.9599 24.436 31.4813 24.5765 32.8856C24.752 34.6411 24.635 37.0402 24.2839 38.152C24.003 39.0415 23.6987 39.771 23.5817 40.0245C25.1031 38.5811 29.129 34.8284 33.0612 31.3642C37.9765 27.0341 40.1416 22.6455 40.3756 21.4751C41.2924 20.7339 43.278 19.0058 43.8865 18.0227C44.4951 17.0397 45.1154 15.3115 45.3494 14.5703H28.38C28.1264 14.3168 27.4554 13.7043 26.8 13.283C26.1447 12.8617 24.8105 12.4833 24.2254 12.3467C25.6102 11.9761 28.38 10.2402 28.38 6.26115C28.38 1.28734 23.4062 0 19.6612 0H8.89434V1.63843H11.7031V11.469C7.80205 11.6056 0 14.1139 0 23.0551C0 34.2315 10.4766 34.9913 14.6885 32.8852C2.3871 32.8238 1.11179 26.2583 1.11179 23.0551ZM13.6926 1.57992V11.7616H21.1826C24.8691 11.7616 26.5075 8.30919 26.5075 6.49521C26.5075 4.68124 25.2787 1.57992 21.1826 1.57992H13.6926ZM13.8097 25.8053V13.283C14.98 13.5756 17.8706 14.9097 20.0708 17.9057C22.271 20.9017 23.1331 24.4204 23.2892 25.8053H13.8097ZM28.38 19.2516C28.38 22.4816 26.6245 24.3424 25.7468 24.869C25.5713 23.7573 24.9159 20.9485 23.6988 18.6079C22.4816 16.2673 20.4219 14.2778 19.5442 13.5756H22.704C25.1031 13.5756 28.38 15.214 28.38 19.2516ZM35.9285 15.7406H43.711C43.4575 16.4233 42.6929 18.0227 41.663 18.959C41.148 19.4271 40.4342 20.0903 40.1416 20.3634C40.1026 19.8952 39.7203 18.7249 38.5032 17.7887C37.286 16.8524 36.2796 16.0332 35.9285 15.7406ZM34.8752 17.8472C33.0495 16.6301 30.4085 16.2868 29.3162 16.2673C29.6478 16.989 30.311 18.7015 30.311 19.7782C30.311 23.1487 27.7363 25.5517 26.449 26.3319V27.3852C26.7416 27.0926 28.0991 26.3553 31.1887 25.7468C34.2783 25.1382 36.8842 23.1916 37.801 22.2944C37.5864 21.3191 36.7009 19.0643 34.8752 17.8472ZM26.5075 35.7529V28.7311C26.7416 28.458 27.7012 27.8065 29.6673 27.3852C32.125 26.8586 34.4656 25.9223 35.987 24.752C37.2041 23.8158 37.8595 23.3086 38.035 23.1721C37.6839 24.4399 36.0572 27.7012 32.359 30.6036C28.6609 33.5059 26.9171 35.2458 26.5075 35.7529Z" fill="white"/>
</svg>
