<svg width="20" height="20" viewBox="0 0 20 20" fill="none" xmlns="http://www.w3.org/2000/svg">
<path d="M19.9531 16.2795C19.9531 15.9704 19.8499 15.73 19.6433 15.4896C19.4367 15.2492 18.0251 14.1158 17.3366 13.6693C16.8202 13.3258 16.0283 12.845 15.6841 12.6733C15.2021 12.4329 14.7201 12.3985 14.2725 12.5359C14.1692 12.5703 14.1004 12.6046 14.0315 12.6389C13.825 12.742 13.6528 12.9481 13.2397 13.4289C12.9643 13.7723 12.7233 14.0814 12.6889 14.0814C12.6889 14.0814 12.6544 14.0814 12.6544 14.1158C12.62 14.1501 12.5167 14.1845 12.4478 14.2188C12.0003 14.4249 11.415 14.2875 10.451 13.841C9.69359 13.4632 9.03948 13.0167 8.28205 12.3298C7.62794 11.746 6.97378 11.0247 6.62953 10.4409C6.14752 9.68526 5.80326 8.72361 5.80326 8.1741C5.80326 7.93369 5.90654 7.62458 6.00985 7.45285L6.04428 7.41849C6.04428 7.41849 6.04428 7.41849 6.07872 7.38414C6.11316 7.34979 6.1476 7.31543 6.182 7.31543C6.31971 7.21241 6.49185 7.04068 6.664 6.9033C7.45583 6.28508 7.62798 6.07903 7.73129 5.73556C7.83456 5.3921 7.73129 4.94565 7.38699 4.32743C6.7672 3.19408 5.04583 1.03035 4.42612 0.618212C4.32284 0.549504 4.1507 0.480834 4.04742 0.412125C3.772 0.343417 3.39331 0.309101 3.18672 0.343417C2.87686 0.412125 2.49817 0.652528 1.63747 1.27071C1.12106 1.64849 0.432472 2.30107 0.260363 2.57582C-0.118332 3.22836 -0.0839332 3.74356 0.363636 5.01432C0.776768 6.1477 1.32761 7.28108 1.94733 8.3801L1.98176 8.41446C2.11948 8.62055 2.25719 8.86095 2.3949 9.067C2.3949 9.10135 2.42933 9.10135 2.42933 9.1357C2.56704 9.34179 2.70475 9.58219 2.84247 9.78824C2.91134 9.85695 2.94574 9.95998 3.01461 10.0286C3.11789 10.2004 3.2212 10.3378 3.35891 10.5095C3.53106 10.7499 3.70321 10.9903 3.90975 11.2307C5.87214 13.7723 8.14438 15.833 10.8298 17.5159C10.8642 17.5502 10.8986 17.5502 10.933 17.5846C11.3462 17.825 11.7593 18.0654 12.1724 18.3058C12.2413 18.3402 12.2757 18.3745 12.3446 18.4088C12.7577 18.6492 13.2053 18.8553 13.6528 19.0614C13.6873 19.0957 13.7561 19.0957 13.7906 19.1301C14.2381 19.3362 14.7201 19.5422 15.2021 19.7483C15.7874 19.9887 15.9939 20.0231 16.4415 19.9887C16.6481 19.9887 16.8546 19.9543 17.0268 19.8857C17.3022 19.817 17.5432 19.6796 17.853 19.4735C17.9219 19.4392 17.9563 19.4048 18.0252 19.3705C18.0941 19.3362 18.1629 19.2675 18.2318 19.1988C18.6105 18.8897 19.0236 18.4089 19.3679 17.9624C19.6089 17.6533 19.781 17.3442 19.8843 17.1038C19.9187 16.7603 19.9531 16.5199 19.9531 16.2795Z" fill="#323232"/>
</svg>
