<svg width="20" height="20" viewBox="0 0 20 20" fill="none" xmlns="http://www.w3.org/2000/svg">
<path d="M10.1412 0.137378C10.3133 0 10.4166 0 10.9674 0C11.2429 0 11.656 0.0343543 11.897 0.0687086C13.0331 0.206087 13.7561 0.377819 14.7545 0.858624C15.7529 1.33947 16.3726 1.78592 17.2333 2.57587C18.0252 3.33147 18.4383 3.91534 18.9203 4.84263C19.5744 6.11339 19.9187 7.59024 19.9876 9.23877C20.022 9.78829 19.9876 9.92566 19.8499 10.0974C19.6089 10.4065 19.058 10.3722 18.8515 9.99437C18.7826 9.89135 18.7826 9.78829 18.7482 9.34184C18.7137 8.65495 18.6793 8.20846 18.576 7.65894C18.1973 5.56392 17.1645 3.88102 15.512 2.67893C14.1349 1.68293 12.9299 1.30515 11.0707 1.16777C10.4166 1.16777 10.3133 1.16777 10.1756 1.0304C9.90019 0.858624 9.90019 0.37778 10.1412 0.137378Z" fill="#9069AE"/>
<path d="M13.5495 4.4305C12.8954 4.05272 11.897 3.74361 11.0019 3.6749C10.692 3.64054 10.4855 3.57187 10.3822 3.43449C10.1756 3.26276 10.1756 2.95365 10.3133 2.7476C10.4854 2.47285 10.7609 2.43849 11.5527 2.57587C13.5495 2.85063 15.0988 3.77796 16.1316 5.25477C16.7169 6.07903 17.0611 7.07504 17.1645 8.10539C17.1989 8.48317 17.1989 9.1701 17.1645 9.30748C17.13 9.41051 16.9923 9.58224 16.8546 9.61659C16.7169 9.6853 16.4415 9.6853 16.3038 9.58224C16.0628 9.44486 15.9595 9.27313 15.9595 8.72361C15.9595 7.89934 15.7529 7.00637 15.3397 6.31948C14.9266 5.52952 14.307 4.87699 13.5495 4.4305Z" fill="#9069AE"/>
<path d="M14.4102 8.96402C14.2036 9.13575 13.8594 9.13575 13.6528 8.96402C13.4807 8.86099 13.4462 8.72361 13.4118 8.38015C13.3774 7.93366 13.2741 7.62455 13.1708 7.34979C12.8954 6.73157 12.379 6.4225 11.5183 6.31943C11.1052 6.28508 11.0019 6.21641 10.8642 6.07903C10.6232 5.80428 10.7265 5.35779 11.0363 5.18605C11.1741 5.11735 11.2085 5.11734 11.4839 5.1517C11.6561 5.1517 11.897 5.18605 12.0347 5.22041C12.6889 5.35779 13.1709 5.59819 13.6184 5.97601C14.1693 6.49117 14.4791 7.07503 14.5824 7.96801C14.6512 8.55188 14.6168 8.79228 14.4102 8.96402Z" fill="#9069AE"/>
<path d="M19.9531 16.2795C19.9531 15.9704 19.8499 15.73 19.6433 15.4896C19.4367 15.2492 18.0251 14.1158 17.3366 13.6693C16.8202 13.3258 16.0283 12.845 15.6841 12.6733C15.2021 12.4329 14.7201 12.3986 14.2725 12.5359C14.1692 12.5703 14.1004 12.6046 14.0315 12.639C13.825 12.742 13.6528 12.9481 13.2397 13.4289C12.9643 13.7723 12.7233 14.0814 12.6889 14.0814C12.6889 14.0814 12.6544 14.0814 12.6544 14.1158C12.62 14.1501 12.5167 14.1845 12.4478 14.2188C12.0003 14.4249 11.415 14.2875 10.451 13.841C9.69359 13.4632 9.03948 13.0167 8.28205 12.3298C7.62794 11.746 6.97378 11.0247 6.62953 10.4409C6.14752 9.68527 5.80326 8.72362 5.80326 8.17411C5.80326 7.9337 5.90654 7.62459 6.00985 7.45286L6.04428 7.41851C6.04428 7.41851 6.04428 7.41851 6.07872 7.38415C6.11316 7.3498 6.1476 7.31544 6.182 7.31544C6.31971 7.21242 6.49185 7.04069 6.664 6.90331C7.45583 6.28509 7.62798 6.07904 7.73129 5.73557C7.83456 5.39211 7.73129 4.94566 7.38699 4.32744C6.7672 3.19409 5.04583 1.03036 4.42612 0.618223C4.32284 0.549514 4.1507 0.480845 4.04742 0.412136C3.772 0.343428 3.39331 0.309112 3.18672 0.343428C2.87686 0.412136 2.49817 0.652538 1.63747 1.27072C1.12106 1.6485 0.432472 2.30108 0.260363 2.57583C-0.118332 3.22837 -0.0839332 3.74357 0.363636 5.01433C0.776768 6.14771 1.32761 7.28109 1.94733 8.38011L1.98176 8.41447C2.11948 8.62056 2.25719 8.86096 2.3949 9.06701C2.3949 9.10136 2.42933 9.10136 2.42933 9.13571C2.56704 9.3418 2.70475 9.5822 2.84247 9.78825C2.91134 9.85696 2.94574 9.95998 3.01461 10.0287C3.11789 10.2004 3.2212 10.3378 3.35891 10.5095C3.53106 10.7499 3.70321 10.9903 3.90975 11.2307C5.87214 13.7723 8.14438 15.833 10.8298 17.5159C10.8642 17.5502 10.8986 17.5502 10.933 17.5846C11.3462 17.825 11.7593 18.0654 12.1724 18.3058C12.2413 18.3402 12.2757 18.3745 12.3446 18.4088C12.7577 18.6492 13.2053 18.8553 13.6528 19.0614C13.6873 19.0957 13.7561 19.0957 13.7906 19.1301C14.2381 19.3362 14.7201 19.5422 15.2021 19.7483C15.7874 19.9887 15.9939 20.0231 16.4415 19.9887C16.6481 19.9887 16.8546 19.9544 17.0268 19.8857C17.3022 19.817 17.5432 19.6796 17.853 19.4736C17.9219 19.4392 17.9563 19.4048 18.0252 19.3705C18.0941 19.3362 18.1629 19.2675 18.2318 19.1988C18.6105 18.8897 19.0236 18.4089 19.3679 17.9624C19.6089 17.6533 19.781 17.3442 19.8843 17.1038C19.9187 16.7603 19.9531 16.5199 19.9531 16.2795Z" fill="#9069AE"/>
</svg>
